# xmcd
#
# Track frame offsets:
#	150
#	11428
#	41633
#	54153
#	83261
#	108353
#	127560
#	147406
#	158298
#	174088
#	207441
#	229566
#	246251
#	272527
#	293510
#
# Disc length: 4393 seconds
#
# Revision: 0
# Processed by: cddbd v1.4PL0 Copyright (c) Steve Scherf et al.
# Submitted via: audiograbber 1.81.03
#
DISCID=a911270f
DTITLE=Led Zeppelin - Remasters [CD 1)
DYEAR=1990
DGENRE=Rock
TTITLE0=Communication Breakdown
TTITLE1=Babe I'm Gonna Leave You
TTITLE2=Good Times Bad Times
TTITLE3=Dazed And Confused
TTITLE4=Whole Lotta Love
TTITLE5=Heartbreaker
TTITLE6=Ramble On
TTITLE7=Immigrant Song
TTITLE8=Celebration Day
TTITLE9=Since I've Been Loving You
TTITLE10=Black Dog
TTITLE11=Rock And Roll
TTITLE12=The Battle Of Evermore
TTITLE13=Misty Mountain Hop
TTITLE14=Stairway To Heaven
EXTD=YEAR: 1990 ID3G: 17
EXTT0=
EXTT1=
EXTT2=
EXTT3=
EXTT4=
EXTT5=
EXTT6=
EXTT7=
EXTT8=
EXTT9=
EXTT10=
EXTT11=
EXTT12=
EXTT13=
EXTT14=
PLAYORDER=
